<?xml version="1.0" encoding="UTF-8"?>
<!-- Generator: visioncortex VTracer 0.6.3 -->
<svg version="1.1" xmlns="http://www.w3.org/2000/svg" width="1280" height="1280">
<path d="M0 0 C1.76 -0 3.52 -0 5.28 -0 C10.07 -0.01 14.87 -0.01 19.67 -0 C24.85 -0 30.04 -0 35.23 -0.01 C45.37 -0.01 55.52 -0.01 65.67 -0.01 C73.92 -0.01 82.17 -0.01 90.42 -0.01 C91.59 -0.01 92.77 -0.01 93.98 -0.01 C96.37 -0.01 98.76 -0.01 101.15 -0.01 C123.54 -0.01 145.92 -0.01 168.31 -0 C187.5 0 206.69 0 225.88 -0 C248.18 -0.01 270.49 -0.01 292.79 -0.01 C295.18 -0.01 297.56 -0.01 299.94 -0.01 C301.11 -0.01 302.28 -0.01 303.49 -0.01 C311.72 -0.01 319.96 -0.01 328.19 -0.01 C338.24 -0.01 348.28 -0.01 358.32 -0.01 C363.44 -0 368.56 -0 373.68 -0.01 C378.38 -0.01 383.07 -0.01 387.77 -0 C389.46 -0 391.15 -0 392.84 -0 C424.41 -0.05 424.41 -0.05 435.56 7.31 C444.77 16.96 444.35 31.72 444.71 44.32 C445.42 48.06 446.41 49.57 449.24 52.13 C452.15 53.24 455.13 53.82 458.18 54.44 C470.18 57.24 481.3 62.36 488.24 73.13 C488.24 73.79 488.24 74.45 488.24 75.13 C489.07 75.37 489.89 75.62 490.74 75.88 C493.34 76.8 495.42 77.72 497.81 79 C501.39 80.87 504.99 82.01 508.87 83.13 C516.94 85.54 522.45 89.17 527.24 96.13 C527.44 96.96 527.64 97.8 527.85 98.67 C529.51 101.59 530.16 101.71 533.25 102.72 C534.95 103.18 536.66 103.63 538.37 104.06 C540.19 104.57 542.01 105.08 543.83 105.6 C544.74 105.85 545.65 106.1 546.59 106.37 C560.21 110.27 570.4 114.53 577.82 127.21 C580.66 131.03 584.31 131.43 588.83 132.32 C601.24 134.81 615.46 139.46 623.24 150.13 C623.7 150.99 624.15 151.86 624.62 152.75 C627.48 156.93 630.53 158.08 635.24 160.13 C639.86 160.46 644.48 160.79 649.24 161.13 C649.24 188.52 649.24 215.91 649.24 244.13 C644.62 244.13 640 244.13 635.24 244.13 C634.91 245.78 634.58 247.43 634.24 249.13 C633.34 251.71 632.41 254.26 631.43 256.81 C631.02 257.88 631.02 257.88 630.61 258.96 C630.07 260.38 629.52 261.79 628.98 263.2 C628.36 264.83 627.78 266.47 627.21 268.12 C625.07 274.1 622.21 279.04 617.24 283.13 C615.9 283.67 614.56 284.2 613.21 284.73 C610.64 285.96 609.49 286.68 608.12 289.2 C607.28 291.81 606.64 294.39 606.06 297.06 C605.58 298.96 605.1 300.86 604.61 302.76 C604.27 304.14 604.27 304.14 603.92 305.55 C600.89 317.19 596.61 327.05 585.98 333.31 C584.24 334.13 584.24 334.13 582.24 334.13 C580.54 338.1 579.43 342.07 578.37 346.25 C574.98 359.16 571.35 371.92 560.12 380.13 C552.82 385.58 550.75 392.64 548.74 401.25 C546.79 409.44 544.35 414.54 537.65 419.86 C528.07 427.61 525.51 436.89 522.1 448.44 C520.26 454.2 518.04 459.86 513.99 464.44 C513.21 465.36 513.21 465.36 512.42 466.3 C510.24 468.13 510.24 468.13 508.36 468.83 C504.78 470.16 502.76 471.12 500.98 474.61 C499.95 477.74 499.13 480.86 498.37 484.06 C497.81 486.22 497.25 488.37 496.69 490.53 C496.34 491.96 496.34 491.96 495.99 493.42 C495.24 496.13 495.24 496.13 494.18 498.73 C492.72 502.47 492.86 506.02 492.87 510 C492.87 510.93 492.87 511.85 492.87 512.8 C492.96 519.28 493.68 525.5 494.68 531.89 C497.69 551.09 497.47 570.03 497.01 589.44 C496.99 590.61 496.97 591.78 496.95 592.99 C496.92 595.2 496.86 597.42 496.78 599.63 C496.69 606.24 497.55 611.2 502.24 616.13 C504.16 617.23 506.09 618.08 508.12 618.96 C513.89 622.13 518.11 627.67 520.12 633.88 C520.51 635.62 520.88 637.37 521.24 639.13 C521.42 639.98 521.6 640.83 521.78 641.7 C523.55 651.57 523.58 661.35 523.56 671.35 C523.56 674.29 523.58 677.24 523.61 680.18 C523.64 689.23 523.4 698.11 521.98 707.05 C521.81 708.11 521.81 708.11 521.65 709.18 C520.27 716.77 517.17 723.1 511.24 728.13 C508.73 729.85 506.21 731.54 503.65 733.19 C499.93 736.19 497.55 738.81 496.92 743.6 C496.83 746.66 496.87 749.69 496.96 752.75 C496.97 753.89 496.99 755.03 497 756.2 C497.04 759.84 497.11 763.48 497.18 767.13 C498.12 815.85 498.12 815.85 488.12 831.44 C484.91 834.44 481.66 836.3 477.74 838.24 C473.38 841.53 470.64 845.46 469.83 850.95 C469.72 854.28 469.76 857.57 469.86 860.89 C469.88 862.74 469.88 862.74 469.9 864.62 C469.95 868.54 470.03 872.46 470.12 876.38 C470.7 905.83 470.7 905.83 469 917.42 C468.89 918.19 468.78 918.95 468.67 919.74 C467.21 928.23 463.81 936.36 457.24 942.13 C454.75 943.7 452.21 945.15 449.64 946.6 C444.69 949.75 441.74 953.84 439.37 959.13 C436.51 965.22 431.66 969.27 425.46 971.76 C407.19 978.2 384.05 976.28 364.9 976.26 C363.04 976.26 361.18 976.26 359.32 976.27 C354.28 976.27 349.23 976.27 344.19 976.27 C338.72 976.27 333.26 976.28 327.79 976.28 C317.11 976.29 306.43 976.29 295.75 976.29 C287.06 976.29 278.37 976.3 269.68 976.3 C245.01 976.31 220.33 976.31 195.65 976.31 C194.99 976.31 194.32 976.31 193.64 976.31 C192.3 976.31 190.96 976.31 189.62 976.31 C168.74 976.31 147.87 976.32 126.99 976.33 C103.48 976.35 79.98 976.36 56.47 976.36 C44.05 976.36 31.62 976.36 19.19 976.37 C8.62 976.38 -1.96 976.38 -12.54 976.37 C-17.93 976.37 -23.31 976.37 -28.7 976.38 C-33.65 976.39 -38.6 976.39 -43.54 976.38 C-45.32 976.38 -47.09 976.38 -48.87 976.38 C-58.32 976.41 -67.66 976.09 -77.07 975.22 C-77.95 975.14 -78.82 975.06 -79.72 974.98 C-89.26 974.02 -98.41 971.83 -104.76 964.13 C-105.65 962.43 -106.52 960.72 -107.38 959 C-109.93 954.42 -112.12 953.21 -117.13 951.75 C-119.34 951.2 -121.55 950.66 -123.76 950.13 C-132.5 947.03 -142.69 939.84 -147.69 932 C-152.99 924.1 -164.17 920.21 -172.71 916.97 C-178.63 914.53 -182.04 909.75 -184.76 904.13 C-184.76 903.14 -184.76 902.15 -184.76 901.13 C-196.92 895.24 -213.87 896.9 -227.15 896.77 C-228.63 896.76 -230.12 896.74 -231.6 896.71 C-233.71 896.67 -235.81 896.67 -237.92 896.67 C-239.14 896.66 -240.36 896.65 -241.62 896.64 C-244.8 896.9 -244.8 896.9 -247.14 898.77 C-249.19 901.77 -249.32 903.71 -249.44 907.33 C-249.5 908.54 -249.56 909.75 -249.62 910.99 C-249.69 912.88 -249.69 912.88 -249.76 914.81 C-250.13 925.4 -250.75 935.34 -258.76 943.13 C-268.58 950.1 -282.15 949.42 -293.66 949.37 C-295.01 949.38 -296.37 949.38 -297.72 949.38 C-301.4 949.39 -305.08 949.38 -308.76 949.37 C-312.74 949.37 -316.72 949.37 -320.71 949.38 C-328.5 949.38 -336.29 949.38 -344.08 949.37 C-353.17 949.36 -362.27 949.36 -371.36 949.36 C-387.6 949.36 -403.85 949.35 -420.09 949.33 C-435.81 949.32 -451.53 949.31 -467.25 949.31 C-468.21 949.31 -469.18 949.31 -470.18 949.31 C-471.14 949.31 -472.11 949.31 -473.1 949.31 C-491.05 949.31 -508.99 949.31 -526.94 949.3 C-533.26 949.3 -539.58 949.29 -545.9 949.29 C-553.62 949.29 -561.34 949.29 -569.06 949.28 C-572.99 949.27 -576.92 949.27 -580.85 949.27 C-584.47 949.27 -588.08 949.27 -591.7 949.26 C-593.59 949.26 -595.48 949.26 -597.37 949.27 C-608.54 949.23 -619.55 948.64 -630.76 948.13 C-630.76 926.02 -630.76 903.91 -630.76 881.13 C-599.78 879.98 -599.78 879.98 -587.26 879.99 C-585.81 879.98 -584.37 879.98 -582.92 879.97 C-579.88 879.97 -576.84 879.96 -573.8 879.96 C-568.99 879.95 -564.17 879.94 -559.36 879.92 C-557.7 879.91 -556.03 879.9 -554.37 879.9 C-553.54 879.89 -552.71 879.89 -551.85 879.89 C-540.69 879.85 -529.54 879.81 -518.38 879.8 C-510.78 879.79 -503.18 879.77 -495.58 879.73 C-491.58 879.71 -487.58 879.7 -483.58 879.7 C-479.84 879.71 -476.1 879.7 -472.35 879.67 C-470.33 879.66 -468.31 879.67 -466.28 879.68 C-464.48 879.66 -464.48 879.66 -462.64 879.64 C-461.59 879.64 -460.54 879.63 -459.47 879.63 C-455.98 878.98 -454.96 877.87 -452.76 875.13 C-452.16 872.54 -452.16 872.54 -452.25 869.65 C-452.24 868.53 -452.23 867.41 -452.22 866.26 C-452.22 865.03 -452.23 863.8 -452.24 862.53 C-452.23 861.22 -452.23 859.92 -452.22 858.57 C-452.2 854.94 -452.21 851.31 -452.22 847.68 C-452.22 843.77 -452.21 839.86 -452.2 835.94 C-452.17 828.27 -452.17 820.61 -452.18 812.94 C-452.19 806.71 -452.19 800.48 -452.18 794.24 C-452.18 793.36 -452.18 792.47 -452.18 791.56 C-452.18 789.76 -452.17 787.96 -452.17 786.16 C-452.16 769.27 -452.16 752.38 -452.18 735.49 C-452.2 720.03 -452.18 704.58 -452.15 689.12 C-452.12 673.25 -452.11 657.39 -452.12 641.53 C-452.12 639.73 -452.12 637.94 -452.13 636.14 C-452.13 635.26 -452.13 634.38 -452.13 633.47 C-452.13 627.24 -452.12 621.02 -452.1 614.8 C-452.09 607.21 -452.09 599.63 -452.11 592.04 C-452.12 588.17 -452.12 584.3 -452.11 580.43 C-452.09 576.24 -452.1 572.04 -452.13 567.85 C-452.12 566.62 -452.1 565.39 -452.09 564.13 C-452.13 557.62 -452.13 557.62 -454.91 551.87 C-458.22 549.84 -460.07 549.5 -463.94 549.49 C-465.81 549.47 -465.81 549.47 -467.72 549.45 C-469.09 549.46 -470.46 549.47 -471.84 549.48 C-473.29 549.48 -474.74 549.47 -476.19 549.46 C-480.14 549.43 -484.08 549.44 -488.03 549.45 C-492.18 549.46 -496.33 549.44 -500.48 549.42 C-508.36 549.38 -516.24 549.38 -524.12 549.38 C-535.61 549.38 -547.1 549.35 -558.59 549.31 C-560.3 549.31 -562.01 549.3 -563.73 549.29 C-564.56 549.29 -565.4 549.29 -566.26 549.29 C-571.18 549.27 -576.09 549.27 -581.01 549.26 C-584.1 549.26 -587.2 549.26 -590.29 549.26 C-591.7 549.25 -593.11 549.25 -594.52 549.26 C-606.64 549.27 -618.62 548.68 -630.76 548.13 C-630.76 526.02 -630.76 503.91 -630.76 481.13 C-599.74 479.98 -599.74 479.98 -588.49 480 C-587.18 480 -585.86 480 -584.5 480 C-580.96 479.99 -577.41 479.99 -573.86 480 C-569.99 480 -566.12 480 -562.26 479.99 C-554.73 479.99 -547.2 479.99 -539.66 479.99 C-533.54 479.99 -527.42 479.99 -521.29 479.99 C-519.98 479.99 -519.98 479.99 -518.63 479.99 C-516.85 479.99 -515.07 479.99 -513.28 479.99 C-496.64 479.99 -480 479.99 -463.36 480 C-449.11 480 -434.87 480 -420.62 480 C-404.01 479.99 -387.4 479.99 -370.8 479.99 C-369.02 479.99 -367.25 479.99 -365.48 479.99 C-364.61 479.99 -363.73 479.99 -362.84 479.99 C-356.72 479.99 -350.6 479.99 -344.49 479.99 C-337.03 479.99 -329.58 479.99 -322.13 479.99 C-318.33 480 -314.54 480 -310.74 479.99 C-306.62 479.99 -302.49 480 -298.37 480 C-297.19 480 -296 480 -294.79 479.99 C-266.71 480.06 -266.71 480.06 -257.82 487.63 C-257.14 488.45 -256.46 489.28 -255.76 490.13 C-255.2 490.77 -254.64 491.41 -254.07 492.06 C-251.15 496.65 -250.49 501.35 -250.26 506.7 C-250.2 507.92 -250.13 509.15 -250.06 510.41 C-249.94 512.98 -249.83 515.55 -249.72 518.12 C-249.65 519.34 -249.58 520.56 -249.51 521.82 C-249.46 522.94 -249.41 524.05 -249.36 525.2 C-248.61 528.81 -247.77 530.03 -244.76 532.13 C-241.72 532.74 -241.72 532.74 -238.33 532.66 C-237.06 532.67 -235.8 532.68 -234.5 532.68 C-233.15 532.67 -231.79 532.65 -230.44 532.63 C-229.76 532.62 -229.08 532.61 -228.38 532.61 C-210.47 532.54 -210.47 532.54 -194.82 524.63 C-189.09 518.14 -186.59 509.6 -183.68 501.58 C-177.45 484.99 -177.45 484.99 -169.63 481.06 C-168.93 480.77 -168.23 480.48 -167.51 480.19 C-165.21 479.16 -164.04 478.61 -162.76 476.42 C-161.97 474.01 -161.36 471.59 -160.76 469.13 C-152.51 441.89 -152.51 441.89 -140.51 434.38 C-133.33 429.8 -128.08 423.36 -123.51 416.25 C-118.6 408.64 -111.82 405.38 -103.19 403.24 C-93.94 401.32 -84.89 400.15 -75.45 399.95 C-74.37 399.93 -73.3 399.9 -72.18 399.88 C-69.96 399.84 -67.73 399.8 -65.51 399.79 C-64.44 399.76 -63.37 399.73 -62.26 399.7 C-61.3 399.69 -60.34 399.67 -59.35 399.66 C-55.94 398.96 -54.9 397.83 -52.76 395.13 C-52.16 392.23 -52.16 392.23 -52.25 388.95 C-52.24 387.68 -52.23 386.4 -52.22 385.09 C-52.23 383.67 -52.24 382.25 -52.25 380.83 C-52.25 379.33 -52.24 377.82 -52.23 376.32 C-52.21 372.18 -52.22 368.04 -52.24 363.9 C-52.24 359.43 -52.23 354.97 -52.22 350.5 C-52.2 342.77 -52.2 335.03 -52.21 327.29 C-52.22 316.09 -52.21 304.89 -52.19 293.68 C-52.15 275.49 -52.14 257.3 -52.14 239.11 C-52.14 238.02 -52.14 236.93 -52.14 235.81 C-52.14 234.72 -52.14 233.63 -52.13 232.51 C-52.13 217.07 -52.13 201.63 -52.11 186.18 C-52.11 185.1 -52.11 184.01 -52.11 182.9 C-52.1 164.78 -52.08 146.67 -52.05 128.56 C-52.03 117.39 -52.03 106.22 -52.03 95.05 C-52.03 87.39 -52.03 79.73 -52.02 72.07 C-52.01 67.66 -52.01 63.24 -52.02 58.82 C-52.02 54.77 -52.02 50.72 -52.01 46.68 C-52.01 45.22 -52.01 43.76 -52.01 42.3 C-52.1 15.65 -52.1 15.65 -43.57 6.88 C-30.26 -1.4 -15.17 -0.02 0 0 Z M122.24 74.13 C120.98 76.81 120.3 79.42 119.68 82.31 C117.28 91.67 114.12 98.58 106.93 105.25 C100.7 111.15 97.21 118.63 93.24 126.13 C88.39 135.07 83.72 140.73 74.42 145.06 C70.2 147.13 66.24 149.66 62.24 152.13 C61.19 152.77 60.14 153.41 59.06 154.06 C56.71 155.79 54.93 157.42 52.93 159.5 C45.64 166.86 38.71 170.02 28.63 172.04 C27.88 172.21 27.13 172.38 26.35 172.56 C25.35 172.76 25.35 172.76 24.32 172.97 C20.88 174.89 18.92 177.65 17.24 181.13 C16.52 185.12 16.57 189.05 16.61 193.1 C16.6 194.3 16.59 195.5 16.59 196.74 C16.57 200.07 16.58 203.39 16.59 206.72 C16.6 210.31 16.58 213.91 16.57 217.5 C16.55 224.53 16.55 231.56 16.57 238.59 C16.58 244.31 16.58 250.02 16.58 255.74 C16.57 256.55 16.57 257.37 16.57 258.2 C16.57 259.86 16.57 261.51 16.57 263.16 C16.55 278.65 16.57 294.15 16.6 309.64 C16.62 322.93 16.62 336.23 16.59 349.52 C16.57 364.96 16.56 380.4 16.57 395.85 C16.57 397.49 16.57 399.14 16.58 400.78 C16.58 401.59 16.58 402.4 16.58 403.24 C16.58 408.95 16.58 414.66 16.56 420.36 C16.55 427.32 16.55 434.27 16.58 441.23 C16.59 444.78 16.6 448.33 16.58 451.88 C16.56 455.72 16.58 459.57 16.61 463.41 C16.59 465.1 16.59 465.1 16.58 466.82 C16.63 473.01 16.63 473.01 19.59 478.32 C22.84 480.53 24.74 480.77 28.65 480.79 C29.87 480.8 31.09 480.8 32.34 480.81 C33.61 480.79 34.88 480.77 36.18 480.75 C37.44 480.77 38.71 480.79 40.01 480.81 C41.23 480.8 42.45 480.8 43.71 480.79 C44.82 480.79 45.93 480.78 47.07 480.77 C51.42 479.89 53.33 478.46 56.24 475.13 C56.72 472 56.82 469.72 56.61 466.63 C56.58 465.81 56.55 464.99 56.52 464.14 C56.41 461.51 56.27 458.88 56.12 456.25 C56.04 454.52 55.97 452.79 55.89 451.06 C55.78 448.51 55.67 445.95 55.55 443.39 C54.98 431.03 55.22 418.78 56.06 406.44 C56.13 405.22 56.2 404.01 56.27 402.76 C57.47 384.82 62.27 371.89 75.83 359.7 C77.82 357.49 78.9 355.05 80.18 352.38 C87.36 337.7 94.01 329.4 108.4 321.66 C115.64 317.76 121 314.55 126.24 308.13 C144.45 292.56 169.5 294.79 191.97 294.87 C195.58 294.88 199.2 294.87 202.81 294.86 C205.64 294.85 208.47 294.85 211.3 294.86 C213.27 294.86 215.23 294.86 217.2 294.85 C235.14 294.94 252.31 296.76 266.24 309.13 C267.03 310.12 267.81 311.11 268.61 312.13 C271.63 315.56 274.39 317.16 278.43 319.13 C279.77 319.81 281.1 320.49 282.44 321.18 C283.08 321.51 283.73 321.84 284.4 322.18 C286.94 323.48 289.41 324.88 291.87 326.31 C292.6 326.74 293.34 327.17 294.1 327.61 C300.08 331.84 303.26 337.16 306.74 343.44 C313.38 355.61 313.38 355.61 322.24 366.13 C335.84 379.07 335.87 399.92 336.3 417.48 C336.38 422.28 336.39 427.08 336.38 431.88 C336.37 434.44 336.37 436.99 336.38 439.54 C336.38 446.77 336.34 453.94 335.77 461.15 C335.66 462.61 335.66 462.61 335.54 464.1 C335.39 465.8 335.21 467.51 334.99 469.2 C334.68 471.67 334.68 471.67 335.24 475.13 C338.48 478.78 340.47 479.87 345.27 480.57 C348.82 480.76 352.32 480.76 355.87 480.69 C357.08 480.7 358.3 480.71 359.55 480.72 C365.92 480.78 365.92 480.78 371.89 478.82 C375.66 474.51 374.93 470 374.88 464.45 C374.89 463.24 374.9 462.03 374.9 460.79 C374.92 457.43 374.91 454.08 374.9 450.73 C374.89 447.11 374.9 443.49 374.92 439.88 C374.94 432.79 374.94 425.7 374.92 418.61 C374.91 412.85 374.91 407.1 374.91 401.34 C374.91 400.52 374.92 399.7 374.92 398.85 C374.92 397.19 374.92 395.52 374.92 393.86 C374.94 378.25 374.92 362.63 374.89 347.02 C374.87 333.62 374.87 320.22 374.9 306.82 C374.92 291.27 374.93 275.72 374.92 260.16 C374.92 258.5 374.92 256.85 374.91 255.19 C374.91 254.37 374.91 253.55 374.91 252.71 C374.91 246.96 374.91 241.21 374.93 235.46 C374.94 228.45 374.94 221.43 374.91 214.42 C374.9 210.85 374.89 207.27 374.91 203.69 C374.93 199.81 374.9 195.94 374.88 192.06 C374.89 190.93 374.9 189.8 374.91 188.63 C374.88 182.1 374.88 182.1 371.92 176.46 C368.66 173.61 366.22 172.93 361.99 172.06 C350.72 169.46 340.82 163.99 334.24 154.13 C332.12 152.95 329.94 151.85 327.74 150.81 C315.99 145.13 305.92 140.02 299.75 128.04 C298.3 125.23 296.75 122.52 295.12 119.81 C294.66 119.06 294.21 118.3 293.74 117.51 C290.6 112.5 287.44 108.13 283.31 103.88 C276.85 96.83 273.66 90.67 271.81 81.31 C270.7 75.91 270.7 75.91 267.18 71.88 C263.31 69.57 261.49 69 257 68.97 C255.89 68.96 254.78 68.96 253.63 68.95 C252.41 68.94 251.18 68.94 249.92 68.93 C248.63 68.93 247.35 68.92 246.02 68.91 C241.75 68.88 237.48 68.87 233.2 68.85 C231.73 68.85 230.26 68.84 228.79 68.84 C222.66 68.82 216.54 68.8 210.42 68.79 C201.65 68.77 192.88 68.74 184.11 68.68 C177.94 68.64 171.77 68.62 165.6 68.62 C161.92 68.61 158.24 68.6 154.55 68.57 C150.44 68.53 146.33 68.54 142.22 68.54 C140.39 68.52 140.39 68.52 138.53 68.49 C131.44 68.55 127.42 69.11 122.24 74.13 Z M18.99 72.13 C18.42 72.79 17.84 73.45 17.24 74.13 C18.47 78.18 19.94 81.57 22.24 85.13 C23.35 84.19 24.45 83.25 25.56 82.31 C26.17 81.79 26.79 81.27 27.42 80.73 C29.1 79.26 30.68 77.73 32.24 76.13 C31.52 72.88 31.52 72.88 28.43 71.44 C24.45 69.8 22.35 69.15 18.99 72.13 Z M363.06 72.13 C362.34 72.5 361.63 72.87 360.89 73.25 C360.08 73.69 360.08 73.69 359.24 74.13 C360.65 77.34 362.35 79.45 364.87 81.88 C365.5 82.49 366.13 83.1 366.78 83.74 C367.27 84.2 367.75 84.65 368.24 85.13 C372.11 81.9 373.13 78.98 374.24 74.13 C372.43 72.06 372.43 72.06 370.24 70.13 C367.05 70.13 365.83 70.67 363.06 72.13 Z M449.24 142.13 C448.6 143.4 447.95 144.67 447.31 145.94 C446.95 146.65 446.59 147.35 446.22 148.08 C444.69 151.28 444.12 153.83 444.12 157.33 C444.11 158.19 444.11 159.06 444.11 159.94 C444.11 160.89 444.11 161.84 444.11 162.81 C444.11 163.82 444.11 164.82 444.1 165.86 C444.1 169.25 444.1 172.64 444.1 176.02 C444.1 178.45 444.09 180.87 444.09 183.29 C444.08 189.2 444.08 195.11 444.08 201.03 C444.08 205.84 444.08 210.65 444.07 215.47 C444.06 229.13 444.06 242.8 444.06 256.46 C444.06 257.2 444.06 257.93 444.06 258.69 C444.06 259.43 444.06 260.17 444.06 260.93 C444.06 272.85 444.05 284.77 444.04 296.69 C444.02 308.95 444.02 321.21 444.02 333.47 C444.02 340.35 444.01 347.22 444 354.1 C443.99 360.58 443.99 367.06 444 373.54 C444 375.9 444 378.27 443.99 380.64 C443.97 391.44 444.05 402.18 445.13 412.94 C445.21 413.71 445.29 414.49 445.37 415.29 C445.79 418.93 446.28 421.99 448.24 425.13 C448.9 425.13 449.56 425.13 450.24 425.13 C452.55 421.67 453.12 418.49 453.93 414.5 C455.35 408.09 457.2 402.02 459.68 395.94 C459.96 395.25 460.23 394.55 460.52 393.84 C463.21 387.47 466.64 382.7 472.81 379.25 C480.72 374.12 481.63 366.8 483.68 358.06 C486.07 348.26 491.3 340.41 498.24 333.13 C499.51 332.43 499.51 332.43 500.8 331.71 C505.85 328.44 507.69 321.75 509.24 316.13 C510.34 310.53 510.79 304.9 511.11 299.21 C511.22 297.49 511.43 295.78 511.67 294.07 C512.58 285.13 507.34 276.22 502.24 269.13 C499.76 266.94 499.76 266.94 497.24 265.13 C478.45 243.53 482.12 211.72 481.69 184.88 C481.64 181.66 481.58 178.44 481.53 175.22 C481.51 174.26 481.5 173.29 481.48 172.29 C481.95 161.29 481.95 161.29 478.16 151.63 C474.71 149.85 471.33 148.91 467.56 148.13 C461.17 146.68 455.23 144.83 449.24 142.13 Z M553.56 204.75 C551.88 207.16 551.88 207.16 552.99 210.25 C553.71 211.89 554.44 213.53 555.24 215.13 C555.9 215.13 556.56 215.13 557.24 215.13 C558.6 213.57 558.6 213.57 559.87 211.63 C560.32 210.98 560.76 210.33 561.22 209.66 C561.56 209.15 561.9 208.65 562.24 208.13 C558.11 203.42 558.11 203.42 553.56 204.75 Z M169.66 370.04 C168.76 371.37 167.86 372.71 166.97 374.05 C164.86 376.59 162.64 377.94 159.81 379.63 C154.5 382.79 151.01 386.29 147.24 391.13 C146.4 392.1 145.55 393.07 144.68 394.06 C142.72 396.52 141.1 398.92 139.43 401.56 C137.29 404.88 135.13 407.22 132.06 409.69 C128.02 413.09 126.1 415.88 125.24 421.13 C124.94 425.81 125.05 430.44 125.24 435.13 C125.27 435.79 125.29 436.45 125.31 437.13 C125.44 448.31 125.44 448.31 130.78 457.81 C133.67 460.32 133.67 460.32 137.24 461.13 C138.34 463.23 139.31 465.3 140.15 467.53 C142.12 472.37 143.98 475.56 148.77 477.9 C156.89 481.29 165.26 480.85 173.9 480.79 C175.7 480.79 177.5 480.8 179.3 480.81 C183.05 480.81 186.81 480.8 190.56 480.78 C195.35 480.75 200.13 480.77 204.92 480.8 C208.63 480.81 212.34 480.81 216.05 480.8 C217.81 480.79 219.57 480.8 221.34 480.81 C235.07 480.99 235.07 480.99 247.24 475.13 C249.26 472.77 249.26 472.77 250.12 470.13 C250.68 468.82 250.68 468.82 251.24 467.49 C251.57 466.71 251.9 465.93 252.24 465.13 C254.84 461.23 257.58 459.05 261.56 456.73 C266.05 452.46 266.45 447.5 266.68 441.6 C266.7 439.13 266.7 436.66 266.68 434.19 C266.7 432.95 266.72 431.72 266.74 430.44 C266.74 422.12 266.07 416.01 260.1 409.95 C258.99 409.11 258.99 409.11 257.87 408.25 C253.67 404.76 251.33 401.26 248.71 396.52 C246.8 393.41 244.48 391.11 241.82 388.64 C240.24 387.13 240.24 387.13 238.43 384.56 C236.17 382.05 234.3 380.94 231.37 379.31 C227.72 377.25 225.5 375.5 223.18 372 C220 367.36 216.63 365.61 211.24 364.13 C206.76 363.64 202.32 363.55 197.82 363.61 C195.75 363.63 193.68 363.61 191.62 363.58 C179.42 363.53 179.42 363.53 169.66 370.04 Z M-73.3 476.51 C-74.8 478.24 -76.27 479.99 -77.68 481.79 C-79.76 484.13 -79.76 484.13 -82.26 485.43 C-85.94 487.93 -87.08 491.19 -88.82 495.19 C-89.16 495.95 -89.51 496.72 -89.87 497.5 C-91.69 501.56 -93.38 505.65 -94.94 509.81 C-97.76 516.97 -101.82 520.56 -108.67 523.76 C-113.41 526.87 -114.27 531.68 -115.44 536.94 C-116.9 542.89 -118.97 548.27 -121.69 553.75 C-122.02 554.41 -122.34 555.08 -122.67 555.76 C-125.51 561.25 -128.99 565.44 -134.57 568.31 C-141.54 572.53 -146.01 579.25 -149.44 586.5 C-152.7 593.36 -157.11 595.49 -163.96 598.18 C-168.45 599.7 -172.92 600.32 -177.61 600.85 C-178.64 600.97 -179.67 601.09 -180.73 601.22 C-194.68 602.73 -208.69 602.57 -222.7 602.56 C-226.27 602.57 -229.83 602.59 -233.4 602.62 C-234.48 602.61 -235.57 602.61 -236.68 602.6 C-237.69 602.61 -238.69 602.62 -239.72 602.63 C-241.04 602.63 -241.04 602.63 -242.39 602.63 C-245.72 603.33 -246.71 604.4 -248.76 607.13 C-249.15 610.12 -249.3 612.75 -249.26 615.74 C-249.27 616.62 -249.28 617.5 -249.28 618.41 C-249.3 621.36 -249.29 624.3 -249.27 627.25 C-249.28 629.37 -249.29 631.48 -249.29 633.59 C-249.31 639.33 -249.31 645.07 -249.29 650.82 C-249.28 656.82 -249.29 662.82 -249.3 668.82 C-249.31 678.9 -249.3 688.99 -249.28 699.07 C-249.25 710.73 -249.26 722.39 -249.28 734.06 C-249.3 744.06 -249.3 754.07 -249.29 764.07 C-249.29 770.05 -249.29 776.03 -249.3 782.01 C-249.31 787.63 -249.3 793.25 -249.28 798.87 C-249.28 800.94 -249.28 803 -249.29 805.07 C-249.3 807.88 -249.28 810.7 -249.26 813.51 C-249.28 814.74 -249.28 814.74 -249.29 816 C-249.24 819.62 -249.08 821.7 -246.86 824.63 C-244.42 826.37 -243.16 826.65 -240.19 826.7 C-238.78 826.74 -238.78 826.74 -237.34 826.78 C-236.3 826.79 -235.26 826.8 -234.19 826.81 C-233.09 826.84 -231.98 826.87 -230.85 826.9 C-227.58 826.98 -224.32 827.04 -221.06 827.09 C-213.86 827.21 -206.67 827.36 -199.47 827.51 C-196.69 827.56 -193.91 827.61 -191.14 827.65 C-155.42 828.27 -155.42 828.27 -144.24 838.35 C-142.56 840.36 -141.77 842.29 -140.76 844.69 C-139.04 848.11 -138.02 849.01 -134.46 850.6 C-131.84 851.47 -129.19 852.21 -126.54 852.96 C-117.1 855.87 -105.62 863.02 -100.44 871.63 C-96.04 878.45 -86.7 882.54 -79.32 885.31 C-72.76 887.79 -69.19 890.89 -66.19 897.25 C-65.84 898.1 -65.49 898.95 -65.13 899.82 C-63.29 902.91 -62.07 903.62 -58.76 905.13 C-54.94 905.81 -51.12 906.06 -47.26 906.3 C-46.08 906.38 -44.89 906.46 -43.67 906.54 C-28.23 907.47 -12.78 907.4 2.69 907.37 C7.21 907.37 11.74 907.37 16.27 907.38 C25.1 907.38 33.93 907.38 42.76 907.37 C53.08 907.36 63.4 907.36 73.72 907.36 C92.15 907.36 110.58 907.35 129.02 907.33 C146.84 907.32 164.65 907.31 182.47 907.31 C183.57 907.31 184.67 907.31 185.8 907.31 C186.9 907.31 187.99 907.31 189.12 907.31 C209.5 907.31 229.89 907.31 250.27 907.3 C257.44 907.3 264.6 907.29 271.77 907.29 C280.52 907.29 289.27 907.29 298.02 907.28 C302.47 907.27 306.92 907.27 311.37 907.27 C327.07 907.28 342.77 907.25 358.46 906.74 C360.06 906.7 360.06 906.7 361.69 906.65 C375.32 906.36 375.32 906.36 387.24 901.13 C388.49 893.5 388.33 885.88 388.28 878.18 C388.27 877.04 388.27 877.04 388.26 875.88 C388.25 875.3 388.25 874.72 388.24 874.13 C375.58 870.26 364.17 868.4 350.95 868.5 C349.22 868.49 347.48 868.49 345.75 868.48 C342.05 868.46 338.36 868.46 334.67 868.47 C328.82 868.49 322.96 868.48 317.11 868.46 C307.85 868.43 298.59 868.43 289.33 868.43 C272.75 868.45 256.17 868.42 239.58 868.38 C233.78 868.37 227.97 868.37 222.16 868.37 C218.55 868.38 214.93 868.37 211.31 868.37 C209.64 868.37 207.98 868.37 206.31 868.38 C179.05 868.47 179.05 868.47 169.62 861.06 C163.18 853.11 162.61 844.55 162.74 834.63 C162.73 833.47 162.71 832.31 162.7 831.12 C162.73 823.19 163.52 815.45 168.89 809.22 C180.71 797.94 200.78 800.98 215.91 801 C217.85 801 219.79 801 221.74 801 C225.9 800.99 230.06 800.99 234.21 800.99 C240.81 800.99 247.4 800.97 253.99 800.96 C255.11 800.96 256.23 800.95 257.38 800.95 C259.66 800.95 261.94 800.94 264.23 800.94 C279.55 800.9 294.88 800.87 310.21 800.88 C320.58 800.88 330.94 800.86 341.31 800.83 C346.79 800.81 352.26 800.8 357.73 800.81 C362.88 800.82 368.03 800.81 373.18 800.78 C375.06 800.77 376.94 800.78 378.81 800.79 C391.41 800.86 402.27 799.1 414.24 795.13 C414.84 791.07 415.37 787.17 415.34 783.07 C415.34 782.19 415.34 781.31 415.33 780.4 C415.32 779.51 415.32 778.61 415.31 777.69 C415.3 776.31 415.3 776.31 415.29 774.89 C415.28 772.64 415.26 770.38 415.24 768.13 C403.17 763.52 392.45 762.41 379.6 762.48 C377.68 762.48 375.76 762.47 373.85 762.46 C368.69 762.43 363.53 762.44 358.37 762.45 C352.94 762.46 347.51 762.44 342.08 762.42 C331.81 762.38 321.53 762.38 311.26 762.38 C296.21 762.38 281.15 762.35 266.1 762.31 C263.87 762.31 261.64 762.3 259.41 762.29 C257.77 762.29 257.77 762.29 256.1 762.29 C249.66 762.27 243.22 762.27 236.78 762.26 C232.76 762.26 228.74 762.26 224.72 762.26 C222.88 762.25 221.03 762.25 219.18 762.26 C179.18 762.3 179.18 762.3 169.24 754.13 C162.82 746.18 162.88 738.17 162.87 728.38 C162.85 727.15 162.82 725.93 162.8 724.67 C162.77 716.5 163.28 708.53 168.99 702.19 C182.13 690.06 207.57 693.98 224.3 693.99 C226.46 693.98 228.63 693.98 230.79 693.97 C235.42 693.97 240.04 693.96 244.67 693.96 C251.99 693.95 259.32 693.94 266.65 693.92 C269.17 693.91 271.69 693.9 274.21 693.9 C275.47 693.89 276.73 693.89 278.02 693.89 C295.06 693.85 312.09 693.81 329.12 693.8 C340.65 693.79 352.18 693.77 363.71 693.73 C369.79 693.71 375.87 693.7 381.96 693.7 C387.68 693.71 393.4 693.7 399.12 693.67 C401.21 693.66 403.3 693.66 405.39 693.67 C423.19 693.76 423.19 693.76 440.24 689.13 C442.45 686.02 442.54 683.25 442.66 679.49 C442.7 678.42 442.74 677.35 442.78 676.24 C442.81 675.13 442.84 674.02 442.87 672.88 C442.91 671.75 442.95 670.62 442.99 669.46 C443.08 666.68 443.17 663.91 443.24 661.13 C429.19 656.65 416.41 655.41 401.72 655.5 C399.53 655.49 397.34 655.49 395.15 655.48 C390.47 655.46 385.79 655.46 381.12 655.47 C373.7 655.49 366.29 655.48 358.88 655.46 C347.15 655.43 335.42 655.43 323.68 655.43 C302.69 655.45 281.69 655.42 260.7 655.38 C253.35 655.37 245.99 655.37 238.64 655.37 C234.05 655.38 229.46 655.37 224.87 655.37 C222.76 655.37 220.65 655.37 218.54 655.38 C208.72 655.4 198.99 655.29 189.21 654.26 C188.49 654.18 187.77 654.11 187.02 654.03 C179.75 653.15 174.05 650.86 168.81 645.75 C164.22 638.05 163.74 631.6 163.8 622.79 C163.81 620.7 163.78 618.6 163.75 616.51 C163.7 607.99 164.05 601.52 170.17 595.1 C182.26 586.71 196.2 587.97 210.39 587.94 C212.1 587.93 213.81 587.92 215.52 587.91 C219.18 587.89 222.85 587.88 226.52 587.87 C232.34 587.85 238.17 587.82 244 587.79 C256.39 587.73 268.79 587.68 281.18 587.63 C294.51 587.57 307.84 587.51 321.17 587.45 C326 587.43 330.83 587.4 335.66 587.39 C361.41 587.3 361.41 587.3 387.15 586.74 C388.24 586.71 389.33 586.68 390.45 586.65 C399.67 586.31 408.38 584.65 417.24 582.13 C418.39 573.11 418.34 564.2 418.24 555.13 C405.27 549.68 392.65 548.68 378.8 548.73 C377.08 548.73 375.36 548.72 373.63 548.72 C368.93 548.7 364.23 548.7 359.53 548.71 C354.44 548.71 349.36 548.7 344.27 548.68 C335.47 548.67 326.67 548.66 317.87 548.66 C305.14 548.65 292.4 548.63 279.67 548.61 C258.99 548.57 238.31 548.55 217.63 548.53 C197.58 548.51 177.52 548.49 157.47 548.46 C156.23 548.46 155 548.46 153.72 548.46 C140.23 548.44 126.73 548.42 113.24 548.4 C111.46 548.4 111.46 548.4 109.64 548.4 C104.9 548.39 100.16 548.38 95.41 548.37 C81.54 548.35 67.66 548.33 53.79 548.32 C45.09 548.32 36.39 548.31 27.69 548.3 C22.67 548.29 17.65 548.28 12.63 548.28 C8.04 548.28 3.44 548.28 -1.16 548.27 C-2.82 548.27 -4.48 548.27 -6.14 548.27 C-34.4 548.28 -34.4 548.28 -43.76 541.13 C-53.26 528.89 -50.99 511.26 -51.23 496.53 C-51.27 484.16 -51.27 484.16 -53.76 472.13 C-60.01 467.96 -68.21 471.74 -73.3 476.51 Z M-381.69 552.26 C-384.16 556.59 -383.43 562.04 -383.39 566.88 C-383.4 568.19 -383.41 569.5 -383.41 570.86 C-383.43 574.49 -383.42 578.13 -383.41 581.77 C-383.4 585.7 -383.42 589.62 -383.43 593.55 C-383.45 601.24 -383.45 608.92 -383.43 616.61 C-383.42 622.86 -383.42 629.11 -383.42 635.36 C-383.43 636.25 -383.43 637.13 -383.43 638.05 C-383.43 639.86 -383.43 641.66 -383.43 643.47 C-383.45 660.4 -383.43 677.34 -383.4 694.27 C-383.38 708.81 -383.38 723.34 -383.41 737.88 C-383.43 754.75 -383.44 771.63 -383.43 788.5 C-383.43 790.3 -383.43 792.1 -383.42 793.9 C-383.42 794.78 -383.42 795.67 -383.42 796.58 C-383.42 802.82 -383.42 809.06 -383.44 815.3 C-383.45 822.91 -383.45 830.51 -383.42 838.12 C-383.41 842 -383.4 845.88 -383.42 849.76 C-383.44 853.97 -383.42 858.17 -383.39 862.37 C-383.4 863.6 -383.41 864.83 -383.42 866.1 C-383.55 872.8 -383.55 872.8 -380.38 878.38 C-377.41 880.36 -375.85 880.76 -372.31 880.77 C-371.25 880.79 -370.18 880.81 -369.08 880.82 C-367.94 880.81 -366.8 880.8 -365.63 880.79 C-364.45 880.8 -363.27 880.8 -362.06 880.81 C-359.56 880.81 -357.07 880.8 -354.58 880.78 C-350.77 880.75 -346.96 880.78 -343.15 880.81 C-340.72 880.81 -338.3 880.8 -335.88 880.79 C-334.17 880.81 -334.17 880.81 -332.43 880.82 C-331.36 880.81 -330.3 880.79 -329.2 880.77 C-328.27 880.77 -327.33 880.77 -326.37 880.76 C-323.54 880.07 -321.83 879.12 -319.82 877 C-317.35 872.66 -318.08 867.21 -318.12 862.37 C-318.11 861.06 -318.1 859.75 -318.1 858.4 C-318.08 854.76 -318.09 851.12 -318.1 847.48 C-318.11 843.56 -318.1 839.63 -318.08 835.71 C-318.06 828.02 -318.06 820.33 -318.08 812.64 C-318.09 806.39 -318.09 800.14 -318.09 793.9 C-318.09 793.01 -318.08 792.12 -318.08 791.2 C-318.08 789.4 -318.08 787.59 -318.08 785.79 C-318.06 768.85 -318.08 751.92 -318.11 734.98 C-318.13 720.45 -318.13 705.91 -318.1 691.38 C-318.08 674.5 -318.07 657.63 -318.08 640.75 C-318.08 638.95 -318.08 637.16 -318.09 635.36 C-318.09 634.47 -318.09 633.59 -318.09 632.67 C-318.09 626.43 -318.09 620.19 -318.07 613.95 C-318.06 606.35 -318.06 598.74 -318.09 591.14 C-318.1 587.26 -318.11 583.37 -318.09 579.49 C-318.07 575.29 -318.1 571.09 -318.12 566.88 C-318.11 565.65 -318.1 564.42 -318.09 563.15 C-317.96 556.45 -317.96 556.45 -321.13 550.87 C-324.11 548.89 -325.66 548.5 -329.2 548.48 C-330.27 548.46 -331.33 548.45 -332.43 548.43 C-334.14 548.45 -334.14 548.45 -335.88 548.46 C-337.06 548.46 -338.24 548.45 -339.45 548.45 C-341.95 548.45 -344.44 548.45 -346.93 548.48 C-350.74 548.5 -354.55 548.48 -358.36 548.44 C-360.79 548.45 -363.21 548.45 -365.63 548.46 C-366.77 548.45 -367.91 548.44 -369.08 548.43 C-370.68 548.46 -370.68 548.46 -372.31 548.48 C-373.71 548.49 -373.71 548.49 -375.14 548.49 C-377.97 549.18 -379.68 550.13 -381.69 552.26 Z " fill="#000000" transform="translate(630.7552337646484,151.87301635742188)"/>
<path d="M0 0 C1.89 0.03 1.89 0.03 3.83 0.06 C12.51 0.36 20.19 1.58 26.56 7.93 C33.61 16.12 32.9 26.31 32.5 36.56 C32.48 37.74 32.45 38.92 32.43 40.14 C32.15 48.06 31.13 53.94 25.88 60.02 C16.84 67.25 7.4 67.2 -3.81 67.31 C-4.8 67.34 -5.78 67.37 -6.8 67.4 C-14.84 67.47 -20.92 65.84 -27.19 60.69 C-34.24 52.03 -34.6 44.73 -34.69 33.88 C-34.72 32.69 -34.75 31.5 -34.78 30.28 C-34.84 21.71 -33.87 14.52 -28.52 7.6 C-27.89 7.09 -27.27 6.58 -26.62 6.06 C-26.01 5.54 -25.4 5.01 -24.77 4.47 C-16.59 -0.56 -9.39 -0.37 0 0 Z " fill="#000000" transform="translate(827.375,313)"/>
</svg>
